<svg xmlns="http://www.w3.org/2000/svg" fill="none" viewBox="0 0 200 200" stroke-width=".75" height="400" width="400"><g id="Marketing-A-B-testing-01"><g id="color 2"><path id="Vector" fill="#ebff00" d="M96.9 102.451C91.295 106.27 87.381 112.616 84.7 118.905C81.423 126.572 49.294 168.885 50.1 169.54C50.4 170.027 50.715 170.496 51.045 170.947L49.245 172.941C51.335 175.981 56.351 179.515 59.79 180.256C60.2404 179.423 60.7518 178.624 61.32 177.866C62.1432 178.073 62.978 178.23 63.82 178.337C68.758 172.269 81.669 156.137 93.168 140.873C90.868 152.955 88.116 165.622 85.268 180.75C85.858 181.036 86.461 181.294 87.068 181.534L86.062 186.089C89.9371 187.191 94.0429 187.191 97.918 186.089L98.671 183.302C99.491 183.252 100.312 183.173 101.129 183.068C109.09 158.976 115.229 127.436 118.837 103.287L96.9 102.451ZM88.844 141.551C85.462 140.772 80.769 137.451 78.66 134.825L87.5 121.584C90.1985 125.072 93.8276 127.726 97.969 129.241L88.844 141.551Z"></path><path id="Vector_2" fill="#ebff00" d="M56.566 114.934L53.887 116.549L56.832 121.622C46.9729 125.938 36.221 127.821 25.482 127.113L33.025 140.28L61.658 123.75L56.566 114.934Z"></path><path id="Vector_3" fill="#ebff00" d="M48.016 99.981L34.716 107.619C38.9877 107.32 43.1994 106.445 47.237 105.019L48.814 107.831C49.7965 107.368 50.8208 107 51.873 106.731L48.016 99.981Z"></path></g><g id="color 1"><path id="Vector_4" fill="#ff9600" d="M49.593 109.12L50.03 109.88L51.265 109.196C50.7066 109.206 50.1481 109.181 49.593 109.12V109.12Z"></path><path id="Vector_5" fill="#ff9600" d="M124.073 52.1C123.028 52.214 121.907 53.772 121.166 56.014C121.966 55.614 122.819 55.14 123.866 54.532C124.462 54.172 125.145 53.9815 125.842 53.981C125.555 52.975 124.985 51.987 124.073 52.1Z"></path><path id="Vector_6" fill="#ff9600" d="M125.308 61.867C123.826 62.608 121.888 63.558 120.767 64.204C121.067 65.078 121.525 65.642 122.097 65.743C123.214 65.94 124.472 64.3 125.308 61.867Z"></path><path id="Vector_7" fill="#ff9600" d="M128.158 66.541C128.158 66.522 126.619 67.624 124.491 69.03L134.391 67.358L128.158 66.541Z"></path><path id="Vector_8" fill="#ff9600" d="M110.944 68.023L112.597 70.569C112.516 69.9261 112.471 69.279 112.464 68.631C112.464 68.612 111.59 68.27 110.944 68.023Z"></path><path id="Vector_9" fill="#ff9600" d="M104.294 60.29C97.378 65.211 99.487 67.99 107.429 65.496L107.278 65.008C107.559 64.6126 107.716 64.1427 107.729 63.6579C107.743 63.1731 107.612 62.6953 107.353 62.285C105.853 60.366 107.6 59.036 108.474 60.518C108.949 61.335 109.158 61.031 109.158 60.328C108.797 60.138 108.797 59.928 109.12 59.739C109.081 59.3867 109.018 59.0375 108.93 58.694C109.047 58.8562 109.198 58.9907 109.372 59.0882C109.547 59.1857 109.74 59.2438 109.939 59.2583C110.139 59.2728 110.339 59.2434 110.526 59.1721C110.712 59.1009 110.881 58.9896 111.02 58.846C109.234 58.333 109.481 57.82 109.82 57.782C112.465 57.649 113.441 57.989 117.52 57.668C118.595 57.214 120.677 56.318 121.7 55.749C121.629 52.2 110.048 56.108 104.294 60.29Z"></path><path id="Vector_10" fill="#ff9600" d="M117.043 60.879C116.701 61.107 116.343 61.335 115.979 61.563C115.884 61.145 115.903 61.392 116.055 60.898C116.378 60.879 116.7 60.879 117.043 60.879Z"></path><path id="Vector_11" fill="#ff9600" d="M93.2 140.85L91.623 148.887L110.262 116.758C106.327 123.047 99.962 131.863 93.2 140.85Z"></path><path id="Vector_12" fill="#ff9600" d="M110.336 193.537C107.087 190.782 102.261 187.343 97.929 186.089C94.0539 187.191 89.9481 187.191 86.073 186.089C85.2702 188.375 84.7781 190.759 84.61 193.176C84.5967 193.396 84.6287 193.616 84.7039 193.824C84.7792 194.031 84.8961 194.22 85.0474 194.381C85.1987 194.541 85.3813 194.668 85.5839 194.755C85.7864 194.842 86.0046 194.887 86.225 194.886C93.825 194.905 100.361 194.981 109.804 195C109.973 194.998 110.137 194.944 110.275 194.847C110.413 194.749 110.518 194.611 110.576 194.452C110.633 194.294 110.641 194.121 110.599 193.957C110.556 193.794 110.464 193.647 110.336 193.537V193.537Z"></path><path id="Vector_13" fill="#ff9600" d="M57.953 189C57.8111 185.969 58.4523 182.952 59.815 180.241C56.376 179.5 51.36 175.966 49.27 172.926L48 174.347C45.968 176.101 46.112 179.007 47.031 181.529C48.095 184.493 49.064 189.509 50.204 191.998C50.659 192.918 51.3674 193.69 52.246 194.221C53.1245 194.753 54.1365 195.022 55.163 194.998H62.782C61.259 191.029 60.157 191.067 57.953 189Z"></path><path id="Vector_14" fill="#ff9600" d="M98.727 95.687L96.656 98.993L96.504 96.998L98.727 95.687Z"></path><path id="Vector_15" fill="#ff9600" d="M41.803 111.685L41.176 108.987L43.874 108.36L44.501 111.058L41.803 111.685Z"></path><path id="Vector_16" fill="#ff9600" d="M36.369 112.35L36.103 109.595L38.839 109.329L39.124 112.084L36.369 112.35Z"></path><path id="Vector_17" fill="#ff9600" d="M30.973 112.502V109.747H33.747V112.502H30.973Z"></path><path id="Vector_18" fill="#ff9600" d="M126.676 83.869C124.994 84.9479 123.256 85.9373 121.47 86.833C121.432 86.1539 121.332 85.4796 121.17 84.819L126.676 83.869Z"></path><path id="Vector_19" fill="#ff9600" d="M107.125 37.547L95.117 28.747H59.986V46.344H82.6L82.524 46.192C89.4143 42.2099 97.0954 39.7905 105.024 39.105L107.125 37.547ZM91.241 40.568C91.259 40.5852 91.2733 40.6058 91.283 40.6287C91.2928 40.6515 91.2979 40.6762 91.2979 40.701C91.2979 40.7259 91.2928 40.7505 91.283 40.7733C91.2733 40.7962 91.259 40.8168 91.241 40.834C91.2238 40.852 91.2032 40.8663 91.1803 40.8761C91.1575 40.8858 91.1329 40.8909 91.108 40.8909C91.0831 40.8909 91.0585 40.8858 91.0357 40.8761C91.0128 40.8663 90.9922 40.852 90.975 40.834L87.498 37.334L84 40.815C83.9828 40.833 83.9622 40.8473 83.9393 40.857C83.9165 40.8668 83.8919 40.8719 83.867 40.8719C83.8421 40.8719 83.8175 40.8668 83.7947 40.857C83.7718 40.8473 83.7512 40.833 83.734 40.815C83.716 40.7978 83.7017 40.7772 83.692 40.7543C83.6822 40.7315 83.6771 40.7069 83.6771 40.682C83.6771 40.6571 83.6822 40.6325 83.692 40.6097C83.7017 40.5868 83.716 40.5662 83.734 40.549L87.234 37.072L83.757 33.572C83.7217 33.5367 83.7019 33.4889 83.7019 33.439C83.7019 33.3891 83.7217 33.3413 83.757 33.306C83.7923 33.2707 83.8401 33.2509 83.89 33.2509C83.9399 33.2509 83.9877 33.2707 84.023 33.306L87.5 36.806L91 33.329C91.0175 33.3115 91.0382 33.2977 91.061 33.2882C91.0838 33.2788 91.1083 33.2739 91.133 33.2739C91.1577 33.2739 91.1822 33.2788 91.205 33.2882C91.2278 33.2977 91.2485 33.3115 91.266 33.329C91.2835 33.3465 91.2973 33.3672 91.3068 33.39C91.3162 33.4129 91.3211 33.4373 91.3211 33.462C91.3211 33.4867 91.3162 33.5112 91.3068 33.534C91.2973 33.5568 91.2835 33.5775 91.266 33.595L87.766 37.072L91.241 40.568Z"></path></g><g id="outlines"><path id="Vector_20" stroke="#c0bbbb" stroke-linecap="round" stroke-linejoin="round" d="M49.593 109.12L50.03 109.88"></path><path id="Vector_21" stroke="#c0bbbb" stroke-linecap="round" stroke-linejoin="round" d="M11.935 194.981H188.065"></path><path id="Vector_22" stroke="#c0bbbb" stroke-linecap="round" stroke-linejoin="round" d="M59.986 179.933V190.706"></path><path id="Vector_23" stroke="#c0bbbb" stroke-linecap="round" stroke-linejoin="round" d="M59.986 124.719V155.043"></path><path id="Vector_24" stroke="#c0bbbb" stroke-linecap="round" stroke-linejoin="round" d="M59.986 5V68.023"></path><path id="Vector_25" stroke="#c0bbbb" stroke-linecap="round" stroke-linejoin="round" d="M59.986 11.156V28.75H29.567L17.559 19.953L29.567 11.156H59.986Z"></path><path id="Vector_26" stroke="#c0bbbb" stroke-linecap="round" stroke-linejoin="round" d="M82.596 46.344H59.986V28.75H95.117L107.125 37.547L104.997 39.105"></path><path id="Vector_27" stroke="#c0bbbb" stroke-linecap="round" stroke-linejoin="round" d="M77.637 76.212H70.721"></path><path id="Vector_28" stroke="#c0bbbb" stroke-linecap="round" stroke-linejoin="round" d="M67.89 84.819L74.179 65.743L80.487 84.819"></path><path id="Vector_29" stroke="#c0bbbb" stroke-linecap="round" stroke-linejoin="round" d="M94.908 78.929L78.093 49.745C68.6632 55.1853 61.3287 63.629 57.2612 73.7272C53.1936 83.8254 52.6278 94.9954 55.654 105.453"></path><path id="Vector_30" stroke="#c0bbbb" stroke-linecap="round" stroke-linejoin="round" d="M99.734 76.079L82.5 46.173C89.6878 42.0319 97.7236 39.5802 105.999 39.0036C114.274 38.4269 122.572 39.7405 130.265 42.8448C137.958 45.9491 144.843 50.7628 150.401 56.9215C155.958 63.0802 160.042 70.4224 162.342 78.3925C164.643 86.3626 165.1 94.7516 163.679 102.924C162.258 111.097 158.997 118.84 154.142 125.566C149.287 132.292 142.965 137.826 135.655 141.747C128.345 145.669 120.239 147.877 111.95 148.203"></path><path id="Vector_31" stroke="#c0bbbb" stroke-linecap="round" stroke-linejoin="round" d="M90.31 144.669C90.975 144.916 91.64 145.163 92.324 145.391"></path><path id="Vector_32" stroke="#c0bbbb" stroke-linecap="round" stroke-linejoin="round" d="M65.154 113.642L59.929 116.7C59.359 115.769 59.093 115.294 59.093 115.294"></path><path id="Vector_33" stroke="#c0bbbb" stroke-linecap="round" stroke-linejoin="round" d="M74.236 135.093C69.6042 131.13 65.6732 126.416 62.608 121.147L96.808 101.178"></path><path id="Vector_34" stroke="#c0bbbb" stroke-linecap="round" stroke-linejoin="round" d="M125.308 61.867C123.826 62.608 121.882 63.548 120.767 64.204C120.481 64.372 120.237 64.51 120.083 64.622C117.15 66.755 117.783 65.4 118.411 64.261C118.695 63.747 119.863 62.555 120.349 61.639C120.487 61.2662 120.494 60.8572 120.368 60.48C118.587 60.8081 116.779 60.9734 114.968 60.974C113.735 61.076 112.494 61.0441 111.268 60.879C107.968 60.432 108.268 59.611 111.325 59.226C113.448 58.9528 115.533 58.4364 117.538 57.687C119.734 56.8141 121.856 55.7657 123.884 54.552C124.476 54.1939 125.153 54.0031 125.845 54"></path><path id="Vector_35" stroke="#c0bbbb" stroke-linecap="round" stroke-linejoin="round" d="M121.166 56.015C121.907 53.773 123.029 52.223 124.073 52.101C124.986 51.994 125.556 52.975 125.84 53.982C126.376 56.6103 126.192 59.3346 125.308 61.867C124.493 64.306 123.214 65.94 122.097 65.743C121.525 65.643 121.071 65.078 120.767 64.204"></path><path id="Vector_36" stroke="#c0bbbb" stroke-linecap="round" stroke-linejoin="round" d="M109.158 60.347C109.158 61.047 108.952 61.333 108.474 60.518C107.605 59.033 105.852 60.366 107.353 62.285C107.609 62.6961 107.739 63.1735 107.726 63.6578C107.712 64.1421 107.557 64.6117 107.278 65.008"></path><path id="Vector_37" stroke="#c0bbbb" stroke-linecap="round" stroke-linejoin="round" d="M111.02 58.846C110.881 58.9896 110.712 59.1009 110.526 59.1721C110.339 59.2434 110.139 59.2728 109.939 59.2583C109.74 59.2438 109.547 59.1857 109.372 59.0882C109.198 58.9907 109.047 58.8562 108.93 58.694C109.018 59.051 109.082 59.4134 109.121 59.779"></path><path id="Vector_38" stroke="#c0bbbb" stroke-linecap="round" stroke-linejoin="round" d="M114.421 55.331C114.421 55.35 114.421 55.35 114.44 55.369C114.687 56.243 114.915 57.06 115.124 57.839"></path><path id="Vector_39" stroke="#c0bbbb" stroke-linecap="round" stroke-linejoin="round" d="M112.483 68.612C112.483 68.612 111.59 68.27 110.944 68.004L112.597 70.569"></path><path id="Vector_40" stroke="#c0bbbb" stroke-linecap="round" stroke-linejoin="round" d="M124.411 69.044L134.39 67.358L128.158 66.522"></path><path id="Vector_41" stroke="#c0bbbb" stroke-linecap="round" stroke-linejoin="round" d="M120.368 60.48C120.805 60.404 121.299 60.252 121.85 60.138"></path><path id="Vector_42" stroke="#c0bbbb" stroke-linecap="round" stroke-linejoin="round" d="M111.818 59.15L111.21 58.903C109.215 58.39 109.41 57.82 109.785 57.803C110.545 57.765 112.768 57.917 115.085 57.841L117.517 57.67"></path><path id="Vector_43" stroke="#c0bbbb" stroke-linecap="round" stroke-linejoin="round" d="M130.875 53.2C131.611 55.4387 131.811 57.8193 131.458 60.1494C131.105 62.4796 130.209 64.694 128.842 66.614"></path><path id="Vector_44" stroke="#c0bbbb" stroke-linecap="round" stroke-linejoin="round" d="M107.418 65.5C100.446 67.682 98.163 65.793 101.908 62.216C104.931 59.33 110.74 56.38 114.678 55.25C117.452 54.396 120.678 53.971 121.498 55.115"></path><path id="Vector_45" stroke="#c0bbbb" stroke-linecap="round" stroke-linejoin="round" d="M117.043 60.879C116.701 61.107 116.343 61.335 115.979 61.563"></path><path id="Vector_46" stroke="#c0bbbb" stroke-linecap="round" stroke-linejoin="round" d="M104.313 60.29C104.036 58.9625 104.212 57.5805 104.812 56.3645C105.413 55.1485 106.403 54.1684 107.624 53.5804C108.846 52.9924 110.23 52.8303 111.555 53.12C112.879 53.4098 114.069 54.1346 114.934 55.179"></path><path id="Vector_47" stroke="#c0bbbb" stroke-linecap="round" stroke-linejoin="round" d="M106.384 72.925V78.587L111.799 74.217L117.043 77.58L115.143 72.26"></path><path id="Vector_48" stroke="#c0bbbb" stroke-linecap="round" stroke-linejoin="round" d="M115.143 72.26C115.243 72.243 121.518 70.503 122.866 69.9C124.704 68.8948 126.472 67.7662 128.158 66.522L121.926 65.705"></path><path id="Vector_49" stroke="#c0bbbb" stroke-linecap="round" stroke-linejoin="round" d="M110.26 116.758L91.621 148.887"></path><path id="Vector_50" stroke="#c0bbbb" stroke-linecap="round" stroke-linejoin="round" d="M98.689 183.277L97.91 186.089"></path><path id="Vector_51" stroke="#c0bbbb" stroke-linecap="round" stroke-linejoin="round" d="M86.073 186.089L87.079 181.534"></path><path id="Vector_52" stroke="#c0bbbb" stroke-linecap="round" stroke-linejoin="round" d="M109.8 195C100.357 194.991 93.821 194.9 86.221 194.886C86.0006 194.887 85.7824 194.842 85.5798 194.755C85.3773 194.668 85.1947 194.541 85.0434 194.381C84.8921 194.22 84.7752 194.031 84.6999 193.824C84.6247 193.616 84.5927 193.396 84.606 193.176C84.7737 190.759 85.2657 188.375 86.069 186.089C89.9441 187.191 94.0499 187.191 97.925 186.089C102.257 187.343 107.076 190.789 110.332 193.537C110.46 193.647 110.552 193.794 110.595 193.957C110.637 194.121 110.629 194.294 110.572 194.452C110.514 194.611 110.409 194.749 110.271 194.847C110.133 194.944 109.969 194.998 109.8 195V195Z"></path><path id="Vector_53" stroke="#c0bbbb" stroke-linecap="round" stroke-linejoin="round" d="M61.335 177.862C60.6436 178.737 60.0582 179.691 59.591 180.704C58.3823 183.302 57.8203 186.153 57.953 189.015C60.153 191.086 61.259 191.029 62.779 195H55.16C54.1338 195.023 53.1222 194.753 52.2439 194.222C51.3656 193.69 50.657 192.92 50.201 192C49.069 189.507 48.094 184.494 47.028 181.531C46.194 179.212 45.888 176.131 47.997 174.349L51.065 170.96"></path><path id="Vector_54" stroke="#c0bbbb" stroke-linecap="round" stroke-linejoin="round" d="M59.8 180.256C56.361 179.515 51.345 175.981 49.255 172.941"></path><path id="Vector_55" stroke="#c0bbbb" stroke-linecap="round" stroke-linejoin="round" d="M57.953 189.015C56.453 187.989 51.379 189.015 51.379 189.015"></path><path id="Vector_56" stroke="#c0bbbb" stroke-linecap="round" stroke-linejoin="round" d="M102.7 107.467C100.629 110.944 97.3993 112.623 93.01 112.502"></path><path id="Vector_57" stroke="#c0bbbb" stroke-linecap="round" stroke-linejoin="round" d="M78.663 134.827C80.772 137.449 85.463 140.774 88.847 141.553L97.967 129.26C93.8259 127.744 90.1975 125.089 87.5 121.6L78.663 134.827Z"></path><path id="Vector_58" stroke="#c0bbbb" stroke-linecap="round" stroke-linejoin="round" d="M87.498 121.603L88.638 131.692L97.967 129.26"></path><path id="Vector_59" stroke="#c0bbbb" stroke-linecap="round" stroke-linejoin="round" d="M110.45 148.6C111.025 148.642 111.595 148.475 112.056 148.129C112.517 147.783 112.838 147.283 112.958 146.719L115.846 132.26C115.893 132.022 115.886 131.777 115.828 131.542C115.769 131.306 115.66 131.087 115.507 130.898C115.355 130.71 115.163 130.557 114.945 130.451C114.727 130.345 114.488 130.288 114.246 130.284"></path><path id="Vector_60" stroke="#c0bbbb" stroke-linecap="round" stroke-linejoin="round" d="M135.872 112.578C135.872 112.578 146.645 114 146.645 106.9C146.645 100.649 135.872 100.706 135.872 100.706C135.872 100.706 143.472 101.006 143.472 97.077C143.472 93.182 135.872 93.505 135.872 93.505V112.578Z"></path><path id="Vector_61" stroke="#c0bbbb" stroke-linecap="round" stroke-linejoin="round" d="M155.537 150.1C155.541 150.81 155.334 151.506 154.942 152.098C154.551 152.691 153.993 153.154 153.338 153.429C152.683 153.705 151.961 153.78 151.264 153.645C150.567 153.51 149.925 153.171 149.42 152.672C148.915 152.172 148.57 151.534 148.428 150.838C148.286 150.142 148.353 149.42 148.621 148.762C148.889 148.105 149.347 147.541 149.935 147.144C150.524 146.746 151.217 146.532 151.927 146.528C152.399 146.525 152.866 146.615 153.303 146.793C153.74 146.971 154.137 147.234 154.473 147.565C154.808 147.897 155.075 148.292 155.257 148.727C155.44 149.162 155.535 149.628 155.537 150.1Z"></path><path id="Vector_62" stroke="#c0bbbb" stroke-linecap="round" stroke-linejoin="round" d="M164.885 159.185C164.889 159.895 164.682 160.591 164.29 161.183C163.899 161.776 163.341 162.239 162.686 162.514C162.031 162.79 161.309 162.864 160.612 162.73C159.915 162.595 159.273 162.256 158.768 161.757C158.263 161.257 157.918 160.619 157.776 159.923C157.634 159.227 157.701 158.505 157.969 157.847C158.237 157.19 158.695 156.626 159.283 156.229C159.872 155.831 160.565 155.617 161.275 155.613C161.747 155.609 162.215 155.699 162.652 155.877C163.089 156.054 163.487 156.317 163.822 156.649C164.158 156.981 164.424 157.376 164.607 157.811C164.789 158.246 164.884 158.713 164.885 159.185V159.185Z"></path><path id="Vector_63" stroke="#c0bbbb" stroke-linecap="round" stroke-linejoin="round" d="M148.431 162.871L164.809 146.303"></path><path id="Vector_64" stroke="#c0bbbb" stroke-linecap="round" stroke-linejoin="round" d="M35.514 18.243L38.725 22.746L42.468 16.21"></path><path id="Vector_65" stroke="#c0bbbb" stroke-linecap="round" stroke-linejoin="round" d="M149.077 27.42L145.011 26.831L143.187 23.126L141.363 26.831L137.278 27.42L140.223 30.308L139.539 34.355L143.187 32.436L146.835 34.355L146.132 30.308L149.077 27.42Z"></path><path id="Vector_66" stroke="#c0bbbb" stroke-linecap="round" stroke-linejoin="round" d="M36.759 81.912V87.707"></path><path id="Vector_67" stroke="#c0bbbb" stroke-linecap="round" stroke-linejoin="round" d="M39.656 84.81H33.861"></path><path id="Vector_68" stroke="#c0bbbb" stroke-linecap="round" stroke-linejoin="round" d="M64.014 112.464C61.8923 113.89 59.6326 115.1 57.269 116.074"></path><path id="Vector_69" stroke="#c0bbbb" stroke-linecap="round" stroke-linejoin="round" d="M41.803 111.685L41.176 108.987L43.874 108.36L44.501 111.058L41.803 111.685Z"></path><path id="Vector_70" stroke="#c0bbbb" stroke-linecap="round" stroke-linejoin="round" d="M36.369 112.35L36.103 109.595L38.839 109.329L39.124 112.084L36.369 112.35Z"></path><path id="Vector_71" stroke="#c0bbbb" stroke-linecap="round" stroke-linejoin="round" d="M30.973 112.502V109.747H33.747V112.502H30.973Z"></path><path id="Vector_72" stroke="#c0bbbb" stroke-linecap="round" stroke-linejoin="round" d="M56.585 114.934L61.658 123.75L33.044 140.28L25.482 127.113"></path><path id="Vector_73" stroke="#c0bbbb" stroke-linecap="round" stroke-linejoin="round" d="M51.265 109.196L48.814 110.545L52.766 117.233L56.585 114.934L53.184 109.025"></path><path id="Vector_74" stroke="#c0bbbb" stroke-linecap="round" stroke-linejoin="round" d="M48.814 107.828L47.214 105.016C38.125 108.141 28.3352 108.621 18.984 106.4C19.0301 113.338 20.1189 120.23 22.214 126.844C34.0118 128.166 45.9499 126.364 56.832 121.619L53.906 116.546"></path><path id="Vector_75" stroke="#c0bbbb" stroke-linecap="round" stroke-linejoin="round" d="M34.697 107.619L47.997 99.981L51.873 106.726"></path><path id="Vector_76" stroke="#c0bbbb" stroke-linecap="round" stroke-linejoin="round" d="M182.4 99.6C182.476 100.032 182.422 100.477 182.246 100.879C182.069 101.281 181.777 101.621 181.406 101.856C181.036 102.092 180.604 102.212 180.166 102.203C179.727 102.193 179.301 102.053 178.942 101.801C178.582 101.549 178.306 101.196 178.147 100.786C177.989 100.377 177.955 99.93 178.051 99.5017C178.147 99.0734 178.367 98.6831 178.685 98.3801C179.002 98.0772 179.403 97.8753 179.835 97.8C180.414 97.6995 181.009 97.8325 181.49 98.1699C181.97 98.5073 182.298 99.0216 182.4 99.6V99.6Z"></path><path id="Vector_77" stroke="#c0bbbb" stroke-linecap="round" stroke-linejoin="round" d="M59.872 109.614C58.637 109.994 55.217 110.963 53.754 108.949C53.754 108.949 49.654 109.633 48.491 108.702C47.328 107.771 51.817 106.824 53.491 106.251C54.591 105.873 57.139 104.902 59.229 103.971"></path><path id="Vector_78" stroke="#c0bbbb" stroke-linecap="round" stroke-linejoin="round" d="M121.47 86.833C121.432 86.1539 121.332 85.4796 121.17 84.819L126.68 83.869"></path><path id="Vector_79" stroke="#c0bbbb" stroke-linecap="round" stroke-linejoin="round" d="M96.9 102.451C91.295 106.27 87.385 112.618 84.7 118.905C83.638 121.395 79.4 127.721 74.231 135.093C69.69 141.572 64.431 148.85 59.981 155.043C54.207 163.082 49.797 169.293 50.101 169.543C51.5451 171.976 53.5371 174.039 55.9186 175.566C58.3001 177.094 61.0054 178.045 63.819 178.343C71.704 168.653 99.919 133.313 110.255 116.783"></path><path id="Vector_80" stroke="#c0bbbb" stroke-linecap="round" stroke-linejoin="round" d="M104.522 126.638L91.621 182.84"></path><path id="Vector_81" stroke="#c0bbbb" stroke-linecap="round" stroke-linejoin="round" d="M118.867 103.268C115.257 127.417 109.12 158.957 101.159 183.049C95.7596 183.864 90.2396 183.064 85.294 180.749C88.121 165.721 88.582 164.375 93.194 140.849"></path><path id="Vector_82" stroke="#c0bbbb" stroke-linecap="round" stroke-linejoin="round" d="M124.487 52.127L142.087 54.875C148.756 55.901 150.523 62.738 145.355 68.46C139.507 74.935 129.166 83.031 121.472 86.833C121.757 92.742 120.18 98.005 118.872 103.287L96.9 102.451C96.6 98.287 96.693 99.516 96.5 96.998L66.281 114.7C62.5019 111.287 59.8274 106.823 58.6 101.881C58.6 101.881 90.025 81.931 95.953 78.3C99.2696 76.2123 102.759 74.4133 106.384 72.923"></path><path id="Vector_83" stroke="#c0bbbb" stroke-linecap="round" stroke-linejoin="round" d="M80.411 136.67L53.735 173.891"></path><path id="Vector_84" stroke="#c0bbbb" stroke-linecap="round" stroke-linejoin="round" d="M98.727 111.324L89.569 123.883"></path><path id="Vector_85" stroke="#c0bbbb" stroke-linecap="round" stroke-linejoin="round" d="M63.824 98.575C65.026 103.619 67.8006 108.15 71.747 111.514"></path><path id="Vector_86" stroke="#c0bbbb" stroke-linecap="round" stroke-linejoin="round" d="M104.942 59.856C105.724 61.2001 106.397 62.6046 106.955 64.056C107.848 66.1579 108.087 68.4806 107.638 70.72C107.491 71.5733 107.055 72.35 106.403 72.92C109.424 75.048 112.692 74.801 115.143 72.255C113.661 72.464 112.81 72.273 112.597 70.564C112.518 69.9147 112.48 69.2611 112.483 68.607C112.984 68.7491 113.501 68.8257 114.022 68.835C116.359 68.835 117.005 66.783 115.979 61.558L115.849 60.91"></path><path id="Vector_87" stroke="#c0bbbb" stroke-linecap="round" stroke-linejoin="round" d="M96.504 96.998L98.727 95.687L96.656 98.993"></path><path id="Vector 1" fill="#c0bbbb" d="M84.114 33.2287C83.9676 33.0823 83.7302 33.0823 83.5837 33.2287C83.4373 33.3751 83.4373 33.6126 83.5837 33.759L84.114 33.2287ZM90.8839 41.0592C91.0304 41.2057 91.2678 41.2057 91.4143 41.0592C91.5607 40.9128 91.5607 40.6753 91.4143 40.5289L90.8839 41.0592ZM83.5837 33.759L90.8839 41.0592L91.4143 40.5289L84.114 33.2287L83.5837 33.759Z"></path><path id="Vector 2" fill="#c0bbbb" d="M91.4143 33.759C91.5607 33.6126 91.5607 33.3751 91.4143 33.2287C91.2678 33.0823 91.0304 33.0823 90.8839 33.2287L91.4143 33.759ZM83.5837 40.5289C83.4373 40.6754 83.4373 40.9128 83.5837 41.0592C83.7302 41.2057 83.9676 41.2057 84.114 41.0592L83.5837 40.5289ZM90.8839 33.2287L83.5837 40.5289L84.114 41.0592L91.4143 33.759L90.8839 33.2287Z"></path></g></g></svg>